<?xml version="1.0" encoding="UTF-8" standalone="no"?>
<!-- Created with Inkscape (http://www.inkscape.org/) -->

<svg
   width="6.4193354mm"
   height="6.5609603mm"
   viewBox="0 0 6.4193354 6.5609603"
   version="1.1"
   id="svg1"
   sodipodi:docname="EverdeckCard.svg"
   inkscape:version="1.3.2 (091e20e, 2023-11-25, custom)"
   xmlns:inkscape="http://www.inkscape.org/namespaces/inkscape"
   xmlns:sodipodi="http://sodipodi.sourceforge.net/DTD/sodipodi-0.dtd"
   xmlns="http://www.w3.org/2000/svg"
   xmlns:svg="http://www.w3.org/2000/svg">
  <sodipodi:namedview
     id="namedview1"
     pagecolor="#ffffff"
     bordercolor="#000000"
     borderopacity="0.25"
     inkscape:showpageshadow="2"
     inkscape:pageopacity="0.0"
     inkscape:pagecheckerboard="0"
     inkscape:deskcolor="#d1d1d1"
     inkscape:document-units="mm"
     inkscape:zoom="1.8572136"
     inkscape:cx="278.10479"
     inkscape:cy="55.190206"
     inkscape:window-width="1920"
     inkscape:window-height="1057"
     inkscape:window-x="-8"
     inkscape:window-y="-8"
     inkscape:window-maximized="1"
     inkscape:current-layer="layer1" />
  <defs
     id="defs1">
    <clipPath
       clipPathUnits="userSpaceOnUse"
       id="clipPath583">
      <path
         d="m 36.5,522.5 h 178.999 v 251 H 36.5 Z"
         transform="translate(-49.240126,-723.14652)"
         id="path583" />
    </clipPath>
  </defs>
  <g
     inkscape:label="Layer 1"
     inkscape:groupmode="layer"
     id="layer1"
     transform="translate(-334.10204,-70.86361)">
    <path
       id="path582"
       d="M 0,0 C 2.086,1.309 2.811,3.185 3.269,5.62 1.947,3.776 0.462,2.926 -1.515,3.183 c -1.79,0.233 -3.039,1.223 -3.63,2.898 -0.598,1.698 -0.359,3.312 0.952,4.651 2.538,2.593 5.088,5.174 7.736,7.866 0.534,-0.505 0.962,-0.893 1.372,-1.299 2.067,-2.051 4.14,-4.097 6.191,-6.164 C 13.271,8.954 13.283,6.009 11.16,4.19 9.05,2.382 6.016,2.923 4.241,5.424 4.091,3.651 5.28,1.466 7.28,0 Z"
       style="fill:#141110;fill-opacity:1;fill-rule:nonzero;stroke:none"
       transform="matrix(0.35277776,0,0,-0.35277776,336.0266,77.424571)"
       clip-path="url(#clipPath583)" />
  </g>
</svg>
