<?xml version="1.0" encoding="UTF-8" standalone="no"?>
<!-- Created with Inkscape (http://www.inkscape.org/) -->

<svg
   width="6.1801381mm"
   height="6.0395136mm"
   viewBox="0 0 6.1801382 6.0395136"
   version="1.1"
   id="svg1"
   sodipodi:docname="EverdeckCard.svg"
   inkscape:version="1.3.2 (091e20e, 2023-11-25, custom)"
   xmlns:inkscape="http://www.inkscape.org/namespaces/inkscape"
   xmlns:sodipodi="http://sodipodi.sourceforge.net/DTD/sodipodi-0.dtd"
   xmlns="http://www.w3.org/2000/svg"
   xmlns:svg="http://www.w3.org/2000/svg">
  <sodipodi:namedview
     id="namedview1"
     pagecolor="#ffffff"
     bordercolor="#000000"
     borderopacity="0.25"
     inkscape:showpageshadow="2"
     inkscape:pageopacity="0.0"
     inkscape:pagecheckerboard="0"
     inkscape:deskcolor="#d1d1d1"
     inkscape:document-units="mm"
     inkscape:zoom="1.8572136"
     inkscape:cx="278.10479"
     inkscape:cy="55.190206"
     inkscape:window-width="1920"
     inkscape:window-height="1057"
     inkscape:window-x="-8"
     inkscape:window-y="-8"
     inkscape:window-maximized="1"
     inkscape:current-layer="layer1" />
  <defs
     id="defs1">
    <clipPath
       clipPathUnits="userSpaceOnUse"
       id="clipPath2616">
      <path
         d="m 36.5,522.5 h 178.999 v 251 H 36.5 Z"
         transform="translate(-44.132326,-740.89552)"
         id="path2616" />
    </clipPath>
  </defs>
  <g
     inkscape:label="Layer 1"
     inkscape:groupmode="layer"
     id="layer1"
     transform="translate(-332.88953,-95.503045)">
    <path
       id="path2615"
       d="m 0,0 c 0.461,-0.991 0.849,-2.189 1.521,-3.199 1.649,-2.479 4.225,-2.433 5.776,0.115 0.686,1.128 1.066,2.442 1.48,3.422 0.459,-1.045 0.861,-2.401 1.595,-3.543 1.551,-2.412 4.027,-2.426 5.639,-0.067 0.66,0.965 1.054,2.111 1.501,3.035 0,-3.88 0.018,-7.941 -0.007,-12.001 -0.013,-2.218 -0.668,-3.134 -2.801,-3.72 -4.006,-1.101 -8.042,-1.1 -12.047,0.012 -2.043,0.567 -2.656,1.465 -2.656,3.544 C -0.001,-8.208 0,-4.015 0,0"
       style="fill:#e1ad12;fill-opacity:1;fill-rule:nonzero;stroke:none"
       transform="matrix(0.35277776,0,0,-0.35277776,332.88961,95.622283)"
       clip-path="url(#clipPath2616)" />
  </g>
</svg>
