<?xml version="1.0" encoding="UTF-8" standalone="no"?>
<!-- Created with Inkscape (http://www.inkscape.org/) -->

<svg
   width="6.7617726mm"
   height="6.7554255mm"
   viewBox="0 0 6.7617727 6.7554254"
   version="1.1"
   id="svg1"
   sodipodi:docname="EverdeckCard.svg"
   inkscape:version="1.3.2 (091e20e, 2023-11-25, custom)"
   xmlns:inkscape="http://www.inkscape.org/namespaces/inkscape"
   xmlns:sodipodi="http://sodipodi.sourceforge.net/DTD/sodipodi-0.dtd"
   xmlns="http://www.w3.org/2000/svg"
   xmlns:svg="http://www.w3.org/2000/svg">
  <sodipodi:namedview
     id="namedview1"
     pagecolor="#ffffff"
     bordercolor="#000000"
     borderopacity="0.25"
     inkscape:showpageshadow="2"
     inkscape:pageopacity="0.0"
     inkscape:pagecheckerboard="0"
     inkscape:deskcolor="#d1d1d1"
     inkscape:document-units="mm"
     inkscape:zoom="1.8572136"
     inkscape:cx="278.10479"
     inkscape:cy="55.190206"
     inkscape:window-width="1920"
     inkscape:window-height="1057"
     inkscape:window-x="-8"
     inkscape:window-y="-8"
     inkscape:window-maximized="1"
     inkscape:current-layer="layer1" />
  <defs
     id="defs1">
    <clipPath
       clipPathUnits="userSpaceOnUse"
       id="clipPath2915">
      <path
         d="m 36.5,522.5 h 178.999 v 251 H 36.5 Z"
         transform="translate(-48.350326,-724.56902)"
         id="path2915" />
    </clipPath>
  </defs>
  <g
     inkscape:label="Layer 1"
     inkscape:groupmode="layer"
     id="layer1"
     transform="translate(-322.29884,-108.40116)">
    <path
       id="path2914"
       d="m 0,0 c 3.262,-0.135 5.509,1.621 5.978,4.515 0.389,2.401 -1.319,4.964 -3.781,5.674 -2.769,0.799 -5.143,-0.588 -6.586,-3.847 -1.11,3.85 1.12,8.439 5.05,10.392 4.125,2.05 9.079,0.881 11.9,-2.806 C 15.332,10.306 15.099,5.075 12.017,1.706 8.945,-1.653 3.894,-2.419 0,0"
       style="fill:#346ebf;fill-opacity:1;fill-rule:nonzero;stroke:none"
       transform="matrix(0.35277776,0,0,-0.35277776,323.94761,114.6584)"
       clip-path="url(#clipPath2915)" />
  </g>
</svg>
