<?xml version="1.0" encoding="UTF-8" standalone="no"?>
<!-- Created with Inkscape (http://www.inkscape.org/) -->

<svg
   width="6.7865286mm"
   height="5.862956mm"
   viewBox="0 0 6.7865286 5.862956"
   version="1.1"
   id="svg1"
   sodipodi:docname="EverdeckCard.svg"
   inkscape:version="1.3.2 (091e20e, 2023-11-25, custom)"
   xmlns:inkscape="http://www.inkscape.org/namespaces/inkscape"
   xmlns:sodipodi="http://sodipodi.sourceforge.net/DTD/sodipodi-0.dtd"
   xmlns="http://www.w3.org/2000/svg"
   xmlns:svg="http://www.w3.org/2000/svg">
  <sodipodi:namedview
     id="namedview1"
     pagecolor="#ffffff"
     bordercolor="#000000"
     borderopacity="0.25"
     inkscape:showpageshadow="2"
     inkscape:pageopacity="0.0"
     inkscape:pagecheckerboard="0"
     inkscape:deskcolor="#d1d1d1"
     inkscape:document-units="mm"
     inkscape:zoom="1.8572136"
     inkscape:cx="278.10479"
     inkscape:cy="55.190206"
     inkscape:window-width="1920"
     inkscape:window-height="1057"
     inkscape:window-x="-8"
     inkscape:window-y="-8"
     inkscape:window-maximized="1"
     inkscape:current-layer="layer1" />
  <defs
     id="defs1">
    <clipPath
       clipPathUnits="userSpaceOnUse"
       id="clipPath1223">
      <path
         d="m 396.5,522.5 h 178.999 v 251 H 396.5 Z"
         transform="translate(-413.14291,-724.09352)"
         id="path1223" />
    </clipPath>
  </defs>
  <g
     inkscape:label="Layer 1"
     inkscape:groupmode="layer"
     id="layer1"
     transform="translate(-321.21988,-83.22478)">
    <path
       id="path1222"
       d="m 0,0 c -1.955,1.9 -3.938,3.738 -5.813,5.679 -1.236,1.279 -2.59,2.562 -3.41,4.1 -1.48,2.773 0.378,6.397 3.322,6.753 2.158,0.26 3.87,-0.71 5.125,-2.469 0.225,-0.315 0.407,-0.661 0.519,-0.845 0.882,0.868 1.647,1.873 2.64,2.54 1.852,1.243 3.92,1.094 5.336,-0.146 1.658,-1.453 2.283,-3.81 1.322,-5.758 C 8.522,8.802 7.764,7.826 6.948,6.974 5.791,5.767 4.433,4.754 3.25,3.57 2.044,2.363 0.947,1.048 0,0"
       style="fill:#ec1d27;fill-opacity:1;fill-rule:nonzero;stroke:none"
       transform="matrix(0.35277776,0,0,-0.35277776,324.65697,89.087736)"
       clip-path="url(#clipPath1223)" />
  </g>
</svg>
