<?xml version="1.0" encoding="UTF-8" standalone="no"?>
<!-- Created with Inkscape (http://www.inkscape.org/) -->

<svg
   width="6.7126555mm"
   height="6.4664173mm"
   viewBox="0 0 6.7126556 6.4664173"
   version="1.1"
   id="svg1"
   sodipodi:docname="EverdeckCard.svg"
   inkscape:version="1.3.2 (091e20e, 2023-11-25, custom)"
   xmlns:inkscape="http://www.inkscape.org/namespaces/inkscape"
   xmlns:sodipodi="http://sodipodi.sourceforge.net/DTD/sodipodi-0.dtd"
   xmlns="http://www.w3.org/2000/svg"
   xmlns:svg="http://www.w3.org/2000/svg">
  <sodipodi:namedview
     id="namedview1"
     pagecolor="#ffffff"
     bordercolor="#000000"
     borderopacity="0.25"
     inkscape:showpageshadow="2"
     inkscape:pageopacity="0.0"
     inkscape:pagecheckerboard="0"
     inkscape:deskcolor="#d1d1d1"
     inkscape:document-units="mm"
     inkscape:zoom="1.3132483"
     inkscape:cx="188.46398"
     inkscape:cy="20.178971"
     inkscape:window-width="1920"
     inkscape:window-height="1057"
     inkscape:window-x="-8"
     inkscape:window-y="-8"
     inkscape:window-maximized="1"
     inkscape:current-layer="layer1" />
  <defs
     id="defs1">
    <clipPath
       clipPathUnits="userSpaceOnUse"
       id="clipPath3850">
      <path
         d="m 396.5,522.5 h 178.999 v 251 H 396.5 Z"
         transform="translate(-419.00101,-724.01202)"
         id="path3850" />
    </clipPath>
    <clipPath
       clipPathUnits="userSpaceOnUse"
       id="clipPath3852">
      <path
         d="m 396.5,522.5 h 178.999 v 251 H 396.5 Z"
         transform="translate(-564.46051,-572.21591)"
         id="path3852" />
    </clipPath>
  </defs>
  <g
     inkscape:label="Layer 1"
     inkscape:groupmode="layer"
     id="layer1"
     transform="translate(-326.66754,-108.52306)">
    <g
       id="group-MC11"
       transform="matrix(0.26458333,0,0,0.26458333,-2771.4228,59.520605)">
      <path
         id="path3849"
         d="M 0,0 C -1.773,0.835 -3.306,1.506 -4.788,2.276 -5.536,2.663 -6.153,2.684 -6.908,2.292 -8.419,1.506 -9.981,0.819 -11.7,0.007 c 0.2,1.691 0.338,3.189 0.565,4.674 0.185,1.211 0.054,2.217 -0.936,3.118 -1.136,1.033 -2.12,2.233 -3.298,3.499 1.874,0.378 3.53,0.774 5.207,1.025 0.86,0.128 1.337,0.531 1.717,1.263 0.8,1.543 1.663,3.054 2.591,4.744 0.952,-1.742 1.75,-3.342 2.694,-4.851 0.311,-0.496 0.953,-0.938 1.525,-1.087 C 0.042,11.956 1.76,11.679 3.659,11.301 2.419,9.964 1.363,8.726 0.196,7.603 -0.625,6.814 -0.772,5.96 -0.609,4.905 -0.367,3.345 -0.215,1.771 0,0"
         style="fill:#346ebf;fill-opacity:1;fill-rule:nonzero;stroke:none"
         transform="matrix(1.3333333,0,0,-1.3333333,11426.668,90.650667)"
         clip-path="url(#clipPath3850)" />
      <path
         id="path3851"
         d="m 0,0 c -0.199,-1.687 -0.32,-3.152 -0.557,-4.599 -0.208,-1.261 -0.074,-2.297 0.961,-3.225 1.121,-1.005 2.084,-2.187 3.27,-3.456 -1.875,-0.379 -3.586,-0.65 -5.25,-1.097 -0.605,-0.163 -1.273,-0.635 -1.606,-1.162 -0.935,-1.473 -1.71,-3.048 -2.656,-4.781 -0.917,1.672 -1.78,3.174 -2.568,4.714 -0.399,0.781 -0.913,1.176 -1.818,1.304 -1.648,0.234 -3.271,0.637 -5.123,1.015 1.198,1.296 2.244,2.531 3.403,3.646 0.849,0.815 1.03,1.69 0.845,2.8 -0.253,1.522 -0.389,3.065 -0.603,4.825 1.353,-0.624 2.635,-1.059 3.745,-1.764 1.501,-0.955 2.816,-0.89 4.291,0.033 C -2.596,-1.079 -1.379,-0.645 0,0"
         style="fill:#346ebf;fill-opacity:1;fill-rule:nonzero;stroke:none"
         transform="matrix(1.3333333,0,0,-1.3333333,11620.614,293.04547)"
         clip-path="url(#clipPath3852)" />
      <path
         id="path1"
         d="M 0,0 C -1.773,0.835 -3.306,1.506 -4.788,2.276 -5.536,2.663 -6.153,2.684 -6.908,2.292 -8.419,1.506 -9.981,0.819 -11.7,0.007 c 0.2,1.691 0.338,3.189 0.565,4.674 0.185,1.211 0.054,2.217 -0.936,3.118 -1.136,1.033 -2.12,2.233 -3.298,3.499 1.874,0.378 3.53,0.774 5.207,1.025 0.86,0.128 1.337,0.531 1.717,1.263 0.8,1.543 1.663,3.054 2.591,4.744 0.952,-1.742 1.75,-3.342 2.694,-4.851 0.311,-0.496 0.953,-0.938 1.525,-1.087 C 0.042,11.956 1.76,11.679 3.659,11.301 2.419,9.964 1.363,8.726 0.196,7.603 -0.625,6.814 -0.772,5.96 -0.609,4.905 -0.367,3.345 -0.215,1.771 0,0"
         style="fill:#346ebf;fill-opacity:1;fill-rule:nonzero;stroke:none"
         transform="matrix(1.3333333,0,0,-1.3333333,11729.81,209.64614)"
         clip-path="url(#clipPath3850)" />
    </g>
  </g>
</svg>
