<?xml version="1.0" encoding="UTF-8" standalone="no"?>
<!-- Created with Inkscape (http://www.inkscape.org/) -->

<svg
   width="6.6662598mm"
   height="6.5201206mm"
   viewBox="0 0 6.6662598 6.5201206"
   version="1.1"
   id="svg1"
   sodipodi:docname="EverdeckCard.svg"
   inkscape:version="1.3.2 (091e20e, 2023-11-25, custom)"
   xmlns:inkscape="http://www.inkscape.org/namespaces/inkscape"
   xmlns:sodipodi="http://sodipodi.sourceforge.net/DTD/sodipodi-0.dtd"
   xmlns="http://www.w3.org/2000/svg"
   xmlns:svg="http://www.w3.org/2000/svg">
  <sodipodi:namedview
     id="namedview1"
     pagecolor="#ffffff"
     bordercolor="#000000"
     borderopacity="0.25"
     inkscape:showpageshadow="2"
     inkscape:pageopacity="0.0"
     inkscape:pagecheckerboard="0"
     inkscape:deskcolor="#d1d1d1"
     inkscape:document-units="mm"
     inkscape:zoom="3.7144272"
     inkscape:cx="295.2003"
     inkscape:cy="82.246868"
     inkscape:window-width="1920"
     inkscape:window-height="1057"
     inkscape:window-x="-8"
     inkscape:window-y="-8"
     inkscape:window-maximized="1"
     inkscape:current-layer="layer1" />
  <defs
     id="defs1">
    <clipPath
       clipPathUnits="userSpaceOnUse"
       id="clipPath350">
      <path
         d="m 396.5,522.5 h 178.999 v 251 H 396.5 Z"
         transform="translate(-409.44369,-723.13902)"
         id="path350" />
    </clipPath>
  </defs>
  <g
     inkscape:label="Layer 1"
     inkscape:groupmode="layer"
     id="layer1"
     transform="translate(-320.97691,-71.445345)">
    <path
       id="path349"
       d="M 0,0 C 2.284,1.312 2.973,3.253 3.537,5.544 1.09,3.148 -0.817,2.654 -2.902,3.749 c -1.794,0.941 -2.994,3.222 -2.68,5.093 0.367,2.188 1.951,3.455 4.932,3.868 -0.338,1.714 -0.191,3.436 1.265,4.537 0.894,0.676 2.136,1.21 3.234,1.234 2.816,0.062 4.357,-2.221 4.137,-5.841 1.567,0.029 3.04,-0.36 4.015,-1.645 C 12.558,10.261 13.05,9.351 13.2,8.458 13.556,6.337 12.41,4.45 10.502,3.61 8.424,2.694 6.49,3.275 4.586,5.385 4.541,3.595 5.62,1.698 7.712,0 Z"
       style="fill:#141110;fill-opacity:1;fill-rule:nonzero;stroke:none"
       transform="matrix(0.35277776,0,0,-0.35277776,322.96372,77.965466)"
       clip-path="url(#clipPath350)" />
  </g>
</svg>
